<svg xmlns="http://www.w3.org/2000/svg" viewBox="0 0 32 32" width="32" height="32">
  <defs>
    <linearGradient id="g" x1="0" y1="0" x2="1" y2="1">
      <stop offset="0" stop-color="#38bdf8"/>
      <stop offset="1" stop-color="#34d399"/>
    </linearGradient>
  </defs>
  <rect width="32" height="32" rx="7" fill="#0b0f19"/>
  <path d="M16 8C9.5 8 4.5 12.5 4.5 16C4.5 19.5 9.5 24 16 24C22.5 24 27.5 19.5 27.5 16C27.5 12.5 22.5 8 16 8ZM16 21.2C13.13 21.2 10.8 18.87 10.8 16C10.8 13.13 13.13 10.8 16 10.8C18.87 10.8 21.2 13.13 21.2 16C21.2 18.87 18.87 21.2 16 21.2Z" fill="url(#g)"/>
  <circle cx="16" cy="16" r="3.4" fill="#f3f4f6"/>
</svg>
